<svg width="1140.95px" height="290px" xmlns="http://www.w3.org/2000/svg" viewBox="-320.475 -70 1140.95 290" style="background: rgb(0, 0, 0);" preserveAspectRatio="xMidYMid"><defs><filter id="editing-hover" x="-100%" y="-100%" width="300%" height="300%"><feFlood flood-color="#ae8c8c" result="flood"></feFlood><feComposite operator="in" in2="SourceAlpha" in="flood" result="shadow"></feComposite><feOffset dx="2.1" dy="-2.6" in="SourceGraphic" result="offset-1"></feOffset><feOffset dx="-2.1" dy="2.6" in="shadow" result="offset-2"></feOffset><feMerge><feMergeNode in="offset-2"></feMergeNode><feMergeNode in="offset-1"></feMergeNode></feMerge></filter></defs><g filter="url(#editing-hover)"><g transform="translate(-165.11498045921326, 109.28000259399414)"><path d="M23.56-7.02L22.78-7.02L22.78-49.14L23.56-49.14L23.56-28.47L53.51-28.47L53.51-49.14L54.29-49.14L54.29-7.02L53.51-7.02L53.51-27.69L23.56-27.69L23.56-7.02ZM17.16 0L29.25 0L29.25 0Q30.73 0 31.39-0.66L31.39-0.66L31.39-0.66Q32.06-1.33 32.06-2.81L32.06-2.81L32.06-20.12L45.08-20.12L45.08-2.81L45.08-2.81Q45.08-1.33 45.75-0.66L45.75-0.66L45.75-0.66Q46.41 0 47.89 0L47.89 0L59.98 0L59.98 0Q61.46 0 62.13-0.66L62.13-0.66L62.13-0.66Q62.79-1.33 62.79-2.81L62.79-2.81L62.79-53.35L62.79-53.35Q62.79-54.83 62.13-55.50L62.13-55.50L62.13-55.50Q61.46-56.16 59.98-56.16L59.98-56.16L47.89-56.16L47.89-56.16Q46.41-56.16 45.75-55.50L45.75-55.50L45.75-55.50Q45.08-54.83 45.08-53.35L45.08-53.35L45.08-36.43L32.06-36.43L32.06-53.35L32.06-53.35Q32.06-54.83 31.39-55.50L31.39-55.50L31.39-55.50Q30.73-56.16 29.25-56.16L29.25-56.16L17.16-56.16L17.16-56.16Q15.68-56.16 15.02-55.50L15.02-55.50L15.02-55.50Q14.35-54.83 14.35-53.35L14.35-53.35L14.35-2.81L14.35-2.81Q14.35-1.33 15.02-0.66L15.02-0.66L15.02-0.66Q15.68 0 17.16 0L17.16 0ZM31.75 0.08L31.75 0.08L21.61 8.50L21.61 8.50Q21.29 8.81 20.63 9.05L20.63 9.05L20.63 9.05Q19.97 9.28 19.19 9.28L19.19 9.28L7.10 9.28L7.10 9.28Q5.23 9.28 4.37 8.42L4.37 8.42L4.37 8.42Q3.51 7.57 3.51 5.69L3.51 5.69L3.51-44.85L3.51-44.85Q3.51-45.86 3.78-46.57L3.78-46.57L3.78-46.57Q4.06-47.27 4.60-47.74L4.60-47.74L14.66-56.24L14.66-56.24Q15.05-56.55 15.72-56.74L15.72-56.74L15.72-56.74Q16.38-56.94 17.16-56.94L17.16-56.94L29.25-56.94L29.25-56.94Q31.12-56.94 31.98-56.08L31.98-56.08L31.98-56.08Q32.84-55.22 32.84-53.35L32.84-53.35L32.84-37.21L34.24-37.21L34.24-44.85L34.24-44.85Q34.24-45.86 34.52-46.57L34.52-46.57L34.52-46.57Q34.79-47.27 35.33-47.74L35.33-47.74L45.40-56.24L45.40-56.24Q45.79-56.55 46.45-56.74L46.45-56.74L46.45-56.74Q47.11-56.94 47.89-56.94L47.89-56.94L59.98-56.94L59.98-56.94Q61.85-56.94 62.71-56.08L62.71-56.08L62.71-56.08Q63.57-55.22 63.57-53.35L63.57-53.35L63.57-2.81L63.57-2.81Q63.57-1.79 63.30-1.09L63.30-1.09L63.30-1.09Q63.02-0.39 62.48 0.08L62.48 0.08L52.34 8.50L52.34 8.50Q52.03 8.81 51.36 9.05L51.36 9.05L51.36 9.05Q50.70 9.28 49.92 9.28L49.92 9.28L37.83 9.28L37.83 9.28Q35.96 9.28 35.10 8.42L35.10 8.42L35.10 8.42Q34.24 7.57 34.24 5.69L34.24 5.69L34.24-10.84L32.84-10.84L32.84-2.81L32.84-2.81Q32.84-1.79 32.56-1.09L32.56-1.09L32.56-1.09Q32.29-0.39 31.75 0.08ZM125.03-2.89L114.97 5.54L114.97 5.54Q112.24 7.88 107.33 9.16L107.33 9.16L107.33 9.16Q102.41 10.45 94.69 10.45L94.69 10.45L94.69 10.45Q87.05 10.45 82.17 8.85L82.17 8.85L82.17 8.85Q77.30 7.25 74.53 4.60L74.53 4.60L74.53 4.60Q71.76 1.95 70.71-1.48L70.71-1.48L70.71-1.48Q69.65-4.91 69.65-8.58L69.65-8.58L69.65-32.84L69.65-32.84Q69.65-36.43 70.67-39.51L70.67-39.51L70.67-39.51Q71.68-42.59 74.33-44.77L74.33-44.77L84.47-53.20L84.47-53.20Q87.20-55.54 92.08-56.82L92.08-56.82L92.08-56.82Q96.95-58.11 104.75-58.11L104.75-58.11L104.75-58.11Q112.40-58.11 117.27-56.86L117.27-56.86L117.27-56.86Q122.15-55.61 124.92-53.39L124.92-53.39L124.92-53.39Q127.69-51.17 128.70-48.09L128.70-48.09L128.70-48.09Q129.71-45.01 129.71-41.34L129.71-41.34L129.71-14.74L129.71-14.74Q129.71-11.15 128.70-8.11L128.70-8.11L128.70-8.11Q127.69-5.07 125.03-2.89L125.03-2.89ZM128.93-14.74L128.93-14.74L128.93-41.34L128.93-41.34Q128.93-44.93 127.88-47.85L127.88-47.85L127.88-47.85Q126.83-50.78 124.14-52.88L124.14-52.88L124.14-52.88Q121.45-54.99 116.73-56.16L116.73-56.16L116.73-56.16Q112.01-57.33 104.75-57.33L104.75-57.33L104.75-57.33Q97.50-57.33 92.74-56.16L92.74-56.16L92.74-56.16Q87.98-54.99 85.29-52.88L85.29-52.88L85.29-52.88Q82.60-50.78 81.55-47.85L81.55-47.85L81.55-47.85Q80.50-44.93 80.50-41.34L80.50-41.34L80.50-14.74L80.50-14.74Q80.50-11.15 81.55-8.23L81.55-8.23L81.55-8.23Q82.60-5.30 85.29-3.24L85.29-3.24L85.29-3.24Q87.98-1.17 92.74 0L92.74 0L92.74 0Q97.50 1.17 104.75 1.17L104.75 1.17L104.75 1.17Q112.01 1.17 116.73 0L116.73 0L116.73 0Q121.45-1.17 124.14-3.24L124.14-3.24L124.14-3.24Q126.83-5.30 127.88-8.23L127.88-8.23L127.88-8.23Q128.93-11.15 128.93-14.74ZM120.43-39.55L120.43-16.54L120.43-16.54Q120.43-11.86 117.08-8.93L117.08-8.93L117.08-8.93Q113.72-6.01 104.60-6.01L104.60-6.01L104.60-6.01Q95.47-6.01 92.20-8.93L92.20-8.93L92.20-8.93Q88.92-11.86 88.92-16.54L88.92-16.54L88.92-39.55L88.92-39.55Q88.92-44.23 92.20-47.15L92.20-47.15L92.20-47.15Q95.47-50.08 104.60-50.08L104.60-50.08L104.60-50.08Q113.72-50.08 117.08-47.15L117.08-47.15L117.08-47.15Q120.43-44.23 120.43-39.55L120.43-39.55ZM89.70-39.55L89.70-16.54L89.70-16.54Q89.70-12.17 92.82-9.48L92.82-9.48L92.82-9.48Q95.94-6.79 104.60-6.79L104.60-6.79L104.60-6.79Q113.26-6.79 116.45-9.48L116.45-9.48L116.45-9.48Q119.65-12.17 119.65-16.54L119.65-16.54L119.65-39.55L119.65-39.55Q119.65-43.91 116.45-46.60L116.45-46.60L116.45-46.60Q113.26-49.30 104.60-49.30L104.60-49.30L104.60-49.30Q95.94-49.30 92.82-46.60L92.82-46.60L92.82-46.60Q89.70-43.91 89.70-39.55L89.70-39.55ZM98.20-17.55L98.20-17.55L98.20-38.53L98.20-38.53Q98.20-40.01 99.37-41.07L99.37-41.07L99.37-41.07Q100.54-42.12 104.75-42.12L104.75-42.12L104.75-42.12Q108.97-42.12 110.14-41.07L110.14-41.07L110.14-41.07Q111.31-40.01 111.31-38.53L111.31-38.53L111.31-17.55L111.31-17.55Q111.31-15.99 110.14-14.94L110.14-14.94L110.14-14.94Q108.97-13.88 104.75-13.88L104.75-13.88L104.75-13.88Q100.54-13.88 99.37-14.94L99.37-14.94L99.37-14.94Q98.20-15.99 98.20-17.55ZM98.98-32.29L98.98-17.55L98.98-17.55Q98.98-16.77 99.29-16.18L99.29-16.18L99.29-16.18Q99.61-15.60 100.46-15.21L100.46-15.21L100.46-30.03L100.46-30.03Q100.46-30.81 100.15-31.39L100.15-31.39L100.15-31.39Q99.84-31.98 98.98-32.29L98.98-32.29ZM154.52-23.63L154.52-23.63L154.52-21.22L184.94-21.22L184.94-23.63L184.94-23.63Q184.94-25.74 184.59-27.53L184.59-27.53L184.59-27.53Q184.24-29.33 183.69-30.89L183.69-30.89L178.31-43.60L178.31-43.60Q177.45-45.63 176.51-46.99L176.51-46.99L176.51-46.99Q175.58-48.36 173.39-48.36L173.39-48.36L165.75-48.36L165.75-48.36Q163.41-48.36 162.47-46.99L162.47-46.99L162.47-46.99Q161.54-45.63 160.76-43.68L160.76-43.68L155.77-30.89L155.77-30.89Q155.22-29.33 154.87-27.53L154.87-27.53L154.87-27.53Q154.52-25.74 154.52-23.63ZM163.33-27.92L167.00-39.78L167.00-39.78Q167.31-40.48 167.66-40.79L167.66-40.79L167.66-40.79Q168.01-41.11 168.48-41.11L168.48-41.11L170.43-41.11L170.43-41.11Q170.90-41.11 171.25-40.79L171.25-40.79L171.25-40.79Q171.60-40.48 171.91-39.78L171.91-39.78L175.58-27.92L163.33-27.92ZM185.72-7.02L184.94-7.02L184.94-20.44L154.52-20.44L154.52-7.02L153.74-7.02L153.74-23.63L153.74-23.63Q153.74-25.82 154.09-27.65L154.09-27.65L154.09-27.65Q154.44-29.48 155.06-31.20L155.06-31.20L160.06-43.99L160.06-43.99Q160.91-46.18 162.01-47.66L162.01-47.66L162.01-47.66Q163.10-49.14 165.75-49.14L165.75-49.14L173.39-49.14L173.39-49.14Q175.97-49.14 177.02-47.66L177.02-47.66L177.02-47.66Q178.07-46.18 179.01-43.91L179.01-43.91L184.39-31.20L184.39-31.20Q185.02-29.48 185.37-27.65L185.37-27.65L185.37-27.65Q185.72-25.82 185.72-23.63L185.72-23.63L185.72-7.02ZM162.55-2.81L162.55-2.81L162.55-13.73L176.36-13.73L176.36-2.81L176.36-2.81Q176.36-1.33 177.10-0.66L177.10-0.66L177.10-0.66Q177.84 0 179.40 0L179.40 0L191.18 0L191.18 0Q192.66 0 193.32-0.66L193.32-0.66L193.32-0.66Q193.99-1.33 193.99-2.81L193.99-2.81L193.99-23.40L193.99-23.40Q193.99-25.74 193.25-28.78L193.25-28.78L193.25-28.78Q192.50-31.82 190.94-35.88L190.94-35.88L184.16-53.59L184.16-53.59Q183.69-54.91 182.72-55.54L182.72-55.54L182.72-55.54Q181.74-56.16 180.26-56.16L180.26-56.16L159.28-56.16L159.28-56.16Q157.72-56.16 156.74-55.54L156.74-55.54L156.74-55.54Q155.77-54.91 155.30-53.59L155.30-53.59L148.51-35.88L148.51-35.88Q146.95-31.82 146.21-28.78L146.21-28.78L146.21-28.78Q145.47-25.74 145.47-23.40L145.47-23.40L145.47-2.81L145.47-2.81Q145.47-1.33 146.13-0.66L146.13-0.66L146.13-0.66Q146.80 0 148.28 0L148.28 0L159.74 0L159.74 0Q161.23 0 161.89-0.66L161.89-0.66L161.89-0.66Q162.55-1.33 162.55-2.81ZM162.24 0.08L152.10 8.50L152.10 8.50Q151.79 8.81 151.13 9.05L151.13 9.05L151.13 9.05Q150.46 9.28 149.68 9.28L149.68 9.28L138.22 9.28L138.22 9.28Q136.34 9.28 135.49 8.42L135.49 8.42L135.49 8.42Q134.63 7.57 134.63 5.69L134.63 5.69L134.63-14.90L134.63-14.90Q134.63-17.32 135.37-20.40L135.37-20.40L135.37-20.40Q136.11-23.48 137.75-27.69L137.75-27.69L144.46-45.32L144.46-45.32Q144.69-46.02 145.04-46.53L145.04-46.53L145.04-46.53Q145.39-47.03 145.78-47.42L145.78-47.42L145.86-47.50L155.84-55.85L155.84-55.85Q156.47-56.39 157.33-56.67L157.33-56.67L157.33-56.67Q158.18-56.94 159.28-56.94L159.28-56.94L180.26-56.94L180.26-56.94Q182.05-56.94 183.18-56.20L183.18-56.20L183.18-56.20Q184.31-55.46 184.86-53.90L184.86-53.90L191.65-36.19L191.65-36.19Q193.28-31.98 194.03-28.90L194.03-28.90L194.03-28.90Q194.77-25.82 194.77-23.40L194.77-23.40L194.77-2.81L194.77-2.81Q194.77-1.79 194.49-1.09L194.49-1.09L194.49-1.09Q194.22-0.39 193.67 0.08L193.67 0.08L183.53 8.50L183.53 8.50Q183.22 8.81 182.56 9.05L182.56 9.05L182.56 9.05Q181.90 9.28 181.12 9.28L181.12 9.28L169.34 9.28L169.34 9.28Q167.39 9.28 166.45 8.38L166.45 8.38L166.45 8.38Q165.52 7.49 165.52 5.69L165.52 5.69L165.52-4.45L163.33-4.45L163.33-2.81L163.33-2.81Q163.33-1.79 163.06-1.09L163.06-1.09L163.06-1.09Q162.79-0.39 162.24 0.08L162.24 0.08ZM221.68-48.52L221.68-48.52L250.38-16.22L250.38-49.14L251.16-49.14L251.16-7.02L250.38-7.02L250.38-15.05L220.90-48.13L220.90-48.13Q220.82-48.20 220.70-48.28L220.70-48.28L220.70-48.28Q220.58-48.36 220.51-48.36L220.51-48.36L220.51-48.36Q220.43-48.36 220.39-48.28L220.39-48.28L220.39-48.28Q220.35-48.20 220.35-48.13L220.35-48.13L220.35-7.02L219.57-7.02L219.57-48.28L219.57-48.28Q219.57-48.75 219.88-48.98L219.88-48.98L219.88-48.98Q220.19-49.22 220.51-49.22L220.51-49.22L220.51-49.22Q220.82-49.22 221.05-49.06L221.05-49.06L221.05-49.06Q221.29-48.91 221.68-48.52ZM214.19 0L225.89 0L225.89 0Q227.37 0 228.03-0.66L228.03-0.66L228.03-0.66Q228.70-1.33 228.70-2.81L228.70-2.81L228.70-28.55L242.03-12.40L242.03-2.81L242.03-2.81Q242.03-1.33 242.70-0.66L242.70-0.66L242.70-0.66Q243.36 0 244.84 0L244.84 0L256.54 0L256.54 0Q258.02 0 258.69-0.66L258.69-0.66L258.69-0.66Q259.35-1.33 259.35-2.81L259.35-2.81L259.35-53.35L259.35-53.35Q259.35-54.83 258.69-55.50L258.69-55.50L258.69-55.50Q258.02-56.16 256.54-56.16L256.54-56.16L244.84-56.16L244.84-56.16Q243.36-56.16 242.70-55.50L242.70-55.50L242.70-55.50Q242.03-54.83 242.03-53.35L242.03-53.35L242.03-36.74L226.90-54.05L226.90-54.05Q225.89-55.22 224.84-55.69L224.84-55.69L224.84-55.69Q223.78-56.16 222.30-56.16L222.30-56.16L214.19-56.16L214.19-56.16Q212.71-56.16 212.04-55.50L212.04-55.50L212.04-55.50Q211.38-54.83 211.38-53.35L211.38-53.35L211.38-2.81L211.38-2.81Q211.38-1.33 212.04-0.66L212.04-0.66L212.04-0.66Q212.71 0 214.19 0L214.19 0ZM228.38 0.08L228.38 0.08L218.24 8.50L218.24 8.50Q217.93 8.81 217.27 9.05L217.27 9.05L217.27 9.05Q216.61 9.28 215.83 9.28L215.83 9.28L204.13 9.28L204.13 9.28Q202.25 9.28 201.40 8.42L201.40 8.42L201.40 8.42Q200.54 7.57 200.54 5.69L200.54 5.69L200.54-44.85L200.54-44.85Q200.54-45.86 200.81-46.57L200.81-46.57L200.81-46.57Q201.08-47.27 201.63-47.74L201.63-47.74L211.69-56.24L211.69-56.24Q212.08-56.55 212.75-56.74L212.75-56.74L212.75-56.74Q213.41-56.94 214.19-56.94L214.19-56.94L222.30-56.94L222.30-56.94Q224.02-56.94 225.19-56.39L225.19-56.39L225.19-56.39Q226.36-55.85 227.53-54.60L227.53-54.60L232.91-48.36L242.35-56.24L242.35-56.24Q242.74-56.55 243.40-56.74L243.40-56.74L243.40-56.74Q244.06-56.94 244.84-56.94L244.84-56.94L256.54-56.94L256.54-56.94Q258.41-56.94 259.27-56.08L259.27-56.08L259.27-56.08Q260.13-55.22 260.13-53.35L260.13-53.35L260.13-2.81L260.13-2.81Q260.13-1.79 259.86-1.09L259.86-1.09L259.86-1.09Q259.58-0.39 259.04 0.08L259.04 0.08L248.90 8.50L248.90 8.50Q248.59 8.81 247.92 9.05L247.92 9.05L247.92 9.05Q247.26 9.28 246.48 9.28L246.48 9.28L234.78 9.28L234.78 9.28Q232.91 9.28 232.05 8.42L232.05 8.42L232.05 8.42Q231.19 7.57 231.19 5.69L231.19 5.69L231.19-3.59L229.48-5.69L229.48-2.81L229.48-2.81Q229.48-1.79 229.20-1.09L229.20-1.09L229.20-1.09Q228.93-0.39 228.38 0.08ZM310.75 9.28L310.75 9.28L286.18 9.28L286.18 9.28Q275.96 9.28 271.09 3.98L271.09 3.98L271.09 3.98Q266.21-1.33 266.21-9.75L266.21-9.75L266.21-31.75L266.21-31.75Q266.21-36.04 267.46-39.16L267.46-39.16L267.46-39.16Q268.71-42.28 271.13-44.38L271.13-44.38L281.19-52.88L281.19-52.88Q283.61-54.91 287.39-55.93L287.39-55.93L287.39-55.93Q291.17-56.94 296.24-56.94L296.24-56.94L315.74-56.94L315.74-56.94Q317.62-56.94 318.47-56.08L318.47-56.08L318.47-56.08Q319.33-55.22 319.33-53.35L319.33-53.35L319.33-43.91L319.33-43.91Q319.33-42.90 319.06-42.20L319.06-42.20L319.06-42.20Q318.79-41.50 318.24-41.03L318.24-41.03L308.10-32.60L308.10-32.60Q307.79-32.29 307.13-32.06L307.13-32.06L307.13-32.06Q306.46-31.82 305.68-31.82L305.68-31.82L295.54-31.82L295.54-20.59L295.54-20.59Q295.62-20.75 295.81-20.94L295.81-20.94L295.81-20.94Q296.01-21.14 296.17-21.29L296.17-21.29L306.23-29.80L306.23-29.80Q306.62-30.11 307.28-30.30L307.28-30.30L307.28-30.30Q307.94-30.50 308.72-30.50L308.72-30.50L320.81-30.50L320.81-30.50Q322.69-30.50 323.54-29.64L323.54-29.64L323.54-29.64Q324.40-28.78 324.40-26.91L324.40-26.91L324.40-2.81L324.40-2.81Q324.40-1.79 324.13-1.09L324.13-1.09L324.13-1.09Q323.86-0.39 323.31 0.08L323.31 0.08L313.17 8.50L313.17 8.50Q312.86 8.81 312.19 9.05L312.19 9.05L312.19 9.05Q311.53 9.28 310.75 9.28ZM296.24 0L320.81 0L320.81 0Q322.30 0 322.96-0.66L322.96-0.66L322.96-0.66Q323.62-1.33 323.62-2.81L323.62-2.81L323.62-26.91L323.62-26.91Q323.62-28.39 322.96-29.05L322.96-29.05L322.96-29.05Q322.30-29.72 320.81-29.72L320.81-29.72L308.72-29.72L308.72-29.72Q307.24-29.72 306.58-29.05L306.58-29.05L306.58-29.05Q305.92-28.39 305.92-26.91L305.92-26.91L305.92-14.74L298.35-14.74L298.35-14.74Q296.56-14.74 295.66-15.68L295.66-15.68L295.66-15.68Q294.76-16.61 294.76-18.56L294.76-18.56L294.76-37.21L294.76-37.21Q294.76-39.16 295.93-40.13L295.93-40.13L295.93-40.13Q297.10-41.11 299.52-41.11L299.52-41.11L315.74-41.11L315.74-41.11Q317.23-41.11 317.89-41.77L317.89-41.77L317.89-41.77Q318.55-42.43 318.55-43.91L318.55-43.91L318.55-53.35L318.55-53.35Q318.55-54.83 317.89-55.50L317.89-55.50L317.89-55.50Q317.23-56.16 315.74-56.16L315.74-56.16L296.24-56.16L296.24-56.16Q286.49-56.16 281.78-52.26L281.78-52.26L281.78-52.26Q277.06-48.36 277.06-40.25L277.06-40.25L277.06-15.91L277.06-15.91Q277.06-7.80 281.78-3.90L281.78-3.90L281.78-3.90Q286.49 0 296.24 0L296.24 0ZM315.12-7.02L299.60-7.02L299.60-7.02Q295.31-7.02 292.58-7.57L292.58-7.57L292.58-7.57Q289.85-8.11 288.29-9.32L288.29-9.32L288.29-9.32Q286.73-10.53 286.14-12.44L286.14-12.44L286.14-12.44Q285.56-14.35 285.56-17.08L285.56-17.08L285.56-38.92L285.56-38.92Q285.56-44.46 288.05-46.80L288.05-46.80L288.05-46.80Q290.55-49.14 298.04-49.14L298.04-49.14L311.53-49.14L311.53-48.36L298.04-48.36L298.04-48.36Q291.17-48.36 288.76-46.22L288.76-46.22L288.76-46.22Q286.34-44.07 286.34-38.92L286.34-38.92L286.34-17.08L286.34-17.08Q286.34-12.01 289.03-9.91L289.03-9.91L289.03-9.91Q291.72-7.80 299.60-7.80L299.60-7.80L314.34-7.80L314.34-22.70L315.12-22.70L315.12-7.02ZM398.74 9.28L398.74 9.28L359.03 9.28L359.03 9.28Q357.16 9.28 356.30 8.42L356.30 8.42L356.30 8.42Q355.45 7.57 355.45 5.69L355.45 5.69L355.45-44.85L355.45-44.85Q355.45-45.86 355.72-46.57L355.72-46.57L355.72-46.57Q355.99-47.27 356.54-47.74L356.54-47.74L366.60-56.24L366.60-56.24Q366.99-56.55 367.65-56.74L367.65-56.74L367.65-56.74Q368.32-56.94 369.10-56.94L369.10-56.94L381.19-56.94L381.19-56.94Q383.06-56.94 383.92-56.08L383.92-56.08L383.92-56.08Q384.77-55.22 384.77-53.35L384.77-53.35L384.77-21.61L384.93-21.76L394.99-30.26L394.99-30.26Q395.38-30.58 396.05-30.77L396.05-30.77L396.05-30.77Q396.71-30.97 397.49-30.97L397.49-30.97L408.80-30.97L408.80-30.97Q410.67-30.97 411.53-30.11L411.53-30.11L411.53-30.11Q412.39-29.25 412.39-27.38L412.39-27.38L412.39-2.81L412.39-2.81Q412.39-1.79 412.11-1.09L412.11-1.09L412.11-1.09Q411.84-0.39 411.29 0.08L411.29 0.08L401.15 8.50L401.15 8.50Q400.84 8.81 400.18 9.05L400.18 9.05L400.18 9.05Q399.52 9.28 398.74 9.28ZM369.10 0L408.80 0L408.80 0Q410.28 0 410.94-0.66L410.94-0.66L410.94-0.66Q411.61-1.33 411.61-2.81L411.61-2.81L411.61-27.38L411.61-27.38Q411.61-28.86 410.94-29.52L410.94-29.52L410.94-29.52Q410.28-30.19 408.80-30.19L408.80-30.19L397.49-30.19L397.49-30.19Q396.01-30.19 395.34-29.52L395.34-29.52L395.34-29.52Q394.68-28.86 394.68-27.38L394.68-27.38L394.68-14.74L383.99-14.74L383.99-53.35L383.99-53.35Q383.99-54.83 383.33-55.50L383.33-55.50L383.33-55.50Q382.67-56.16 381.19-56.16L381.19-56.16L369.10-56.16L369.10-56.16Q367.61-56.16 366.95-55.50L366.95-55.50L366.95-55.50Q366.29-54.83 366.29-53.35L366.29-53.35L366.29-2.81L366.29-2.81Q366.29-1.33 366.95-0.66L366.95-0.66L366.95-0.66Q367.61 0 369.10 0L369.10 0ZM403.49-7.02L374.79-7.02L374.79-49.14L375.57-49.14L375.57-7.80L402.71-7.80L402.71-23.17L403.49-23.17L403.49-7.02ZM446.71 9.28L446.71 9.28L434.07 9.28L434.07 9.28Q432.12 9.28 431.30 8.42L431.30 8.42L431.30 8.42Q430.48 7.57 430.48 5.69L430.48 5.69L430.48-4.06L418.70-19.81L418.70-19.81Q416.83-22.31 416.21-24.18L416.21-24.18L416.21-24.18Q415.58-26.05 415.58-29.87L415.58-29.87L415.58-44.85L415.58-44.85Q415.58-45.86 415.86-46.57L415.86-46.57L415.86-46.57Q416.13-47.27 416.68-47.74L416.68-47.74L426.74-56.24L426.74-56.24Q427.13-56.55 427.79-56.74L427.79-56.74L427.79-56.74Q428.45-56.94 429.23-56.94L429.23-56.94L441.25-56.94L441.25-56.94Q443.12-56.94 443.98-56.08L443.98-56.08L443.98-56.08Q444.83-55.22 444.83-53.35L444.83-53.35L444.83-40.56L444.83-40.56Q444.83-39.86 444.91-39.16L444.91-39.16L444.91-39.16Q444.99-38.45 445.38-37.67L445.38-37.67L446.32-36.35L446.32-44.85L446.32-44.85Q446.32-45.86 446.59-46.57L446.59-46.57L446.59-46.57Q446.86-47.27 447.41-47.74L447.41-47.74L457.47-56.24L457.47-56.24Q457.86-56.55 458.52-56.74L458.52-56.74L458.52-56.74Q459.19-56.94 459.97-56.94L459.97-56.94L471.59-56.94L471.59-56.94Q473.46-56.94 474.32-56.08L474.32-56.08L474.32-56.08Q475.18-55.22 475.18-53.35L475.18-53.35L475.18-38.38L475.18-38.38Q475.18-34.55 474.55-32.68L474.55-32.68L474.55-32.68Q473.93-30.81 472.06-28.31L472.06-28.31L460.36-12.48L460.36-2.81L460.36-2.81Q460.36-1.79 460.08-1.09L460.08-1.09L460.08-1.09Q459.81-0.39 459.26 0.08L459.26 0.08L449.12 8.50L449.12 8.50Q448.81 8.81 448.15 9.05L448.15 9.05L448.15 9.05Q447.49 9.28 446.71 9.28ZM444.13 0L456.77 0L456.77 0Q458.25 0 458.91-0.66L458.91-0.66L458.91-0.66Q459.58-1.33 459.58-2.81L459.58-2.81L459.58-12.71L471.43-28.78L471.43-28.78Q473.15-31.20 473.77-32.99L473.77-32.99L473.77-32.99Q474.40-34.79 474.40-38.38L474.40-38.38L474.40-53.35L474.40-53.35Q474.40-54.83 473.73-55.50L473.73-55.50L473.73-55.50Q473.07-56.16 471.59-56.16L471.59-56.16L459.97-56.16L459.97-56.16Q458.48-56.16 457.82-55.50L457.82-55.50L457.82-55.50Q457.16-54.83 457.16-53.35L457.16-53.35L457.16-40.56L457.16-40.56Q457.16-39.78 457.08-38.92L457.08-38.92L457.08-38.92Q457.00-38.06 456.46-37.28L456.46-37.28L452.87-31.67L452.87-31.67Q452.48-30.97 452.05-30.65L452.05-30.65L452.05-30.65Q451.62-30.34 451.00-30.34L451.00-30.34L450.22-30.34L450.22-30.34Q449.59-30.34 449.16-30.65L449.16-30.65L449.16-30.65Q448.73-30.97 448.34-31.67L448.34-31.67L444.76-37.28L444.76-37.28Q444.21-38.06 444.13-38.92L444.13-38.92L444.13-38.92Q444.05-39.78 444.05-40.56L444.05-40.56L444.05-53.35L444.05-53.35Q444.05-54.83 443.39-55.50L443.39-55.50L443.39-55.50Q442.73-56.16 441.25-56.16L441.25-56.16L429.23-56.16L429.23-56.16Q427.75-56.16 427.09-55.50L427.09-55.50L427.09-55.50Q426.43-54.83 426.43-53.35L426.43-53.35L426.43-38.38L426.43-38.38Q426.43-34.79 427.01-32.99L427.01-32.99L427.01-32.99Q427.60-31.20 429.39-28.78L429.39-28.78L441.32-12.79L441.32-2.81L441.32-2.81Q441.32-1.33 441.99-0.66L441.99-0.66L441.99-0.66Q442.65 0 444.13 0L444.13 0ZM451.39-20.36L451.39-20.36L450.84-20.36L450.84-7.02L450.06-7.02L450.06-20.36L449.28-20.36L449.28-20.36Q447.56-20.36 446.20-21.14L446.20-21.14L446.20-21.14Q444.83-21.92 443.59-23.63L443.59-23.63L436.02-34.16L436.02-34.16Q435.16-35.33 435.01-36.89L435.01-36.89L435.01-36.89Q434.85-38.45 434.85-40.17L434.85-40.17L434.85-49.14L435.63-49.14L435.63-40.17L435.63-40.17Q435.63-38.53 435.79-37.09L435.79-37.09L435.79-37.09Q435.94-35.65 436.72-34.48L436.72-34.48L444.29-23.95L444.29-23.95Q445.30-22.39 446.63-21.76L446.63-21.76L446.63-21.76Q447.95-21.14 449.28-21.14L449.28-21.14L451.39-21.14L451.39-21.14Q452.87-21.14 454.08-21.80L454.08-21.80L454.08-21.80Q455.29-22.46 456.46-23.95L456.46-23.95L464.26-34.48L464.26-34.48Q465.04-35.49 465.19-37.01L465.19-37.01L465.19-37.01Q465.35-38.53 465.35-40.17L465.35-40.17L465.35-49.14L466.13-49.14L466.13-40.17L466.13-40.17Q466.13-38.45 466.01-36.93L466.01-36.93L466.01-36.93Q465.89-35.41 464.96-34.16L464.96-34.16L457.16-23.63L457.16-23.63Q455.91-21.92 454.55-21.14L454.55-21.14L454.55-21.14Q453.18-20.36 451.39-20.36ZM560.59-3.28L550.45 5.15L550.45 5.15Q548.03 7.18 544.28 8.23L544.28 8.23L544.28 8.23Q540.54 9.28 535.47 9.28L535.47 9.28L509.18 9.28L509.18 9.28Q507.31 9.28 506.45 8.42L506.45 8.42L506.45 8.42Q505.60 7.57 505.60 5.69L505.60 5.69L505.60-44.85L505.60-44.85Q505.60-45.86 505.87-46.57L505.87-46.57L505.87-46.57Q506.14-47.27 506.69-47.74L506.69-47.74L516.75-56.24L516.75-56.24Q517.14-56.55 517.80-56.74L517.80-56.74L517.80-56.74Q518.47-56.94 519.25-56.94L519.25-56.94L545.53-56.94L545.53-56.94Q555.75-56.94 560.63-52.81L560.63-52.81L560.63-52.81Q565.50-48.67 565.50-40.25L565.50-40.25L565.50-15.91L565.50-15.91Q565.50-11.70 564.25-8.54L564.25-8.54L564.25-8.54Q563.00-5.38 560.59-3.28L560.59-3.28ZM519.25 0L545.53 0L545.53 0Q555.28 0 560.00-3.90L560.00-3.90L560.00-3.90Q564.72-7.80 564.72-15.91L564.72-15.91L564.72-40.25L564.72-40.25Q564.72-48.36 560.00-52.26L560.00-52.26L560.00-52.26Q555.28-56.16 545.53-56.16L545.53-56.16L519.25-56.16L519.25-56.16Q517.76-56.16 517.10-55.50L517.10-55.50L517.10-55.50Q516.44-54.83 516.44-53.35L516.44-53.35L516.44-2.81L516.44-2.81Q516.44-1.33 517.10-0.66L517.10-0.66L517.10-0.66Q517.76 0 519.25 0L519.25 0ZM543.82-7.02L524.94-7.02L524.94-49.14L543.82-49.14L543.82-49.14Q547.79-49.14 550.25-48.28L550.25-48.28L550.25-48.28Q552.71-47.42 554.03-45.98L554.03-45.98L554.03-45.98Q555.36-44.54 555.83-42.55L555.83-42.55L555.83-42.55Q556.30-40.56 556.30-38.30L556.30-38.30L556.30-17.63L556.30-17.63Q556.30-15.37 555.87-13.42L555.87-13.42L555.87-13.42Q555.44-11.47 554.11-10.06L554.11-10.06L554.11-10.06Q552.79-8.66 550.29-7.84L550.29-7.84L550.29-7.84Q547.79-7.02 543.82-7.02L543.82-7.02ZM543.82-48.36L543.82-48.36L525.72-48.36L525.72-7.80L543.82-7.80L543.82-7.80Q547.56-7.80 549.86-8.54L549.86-8.54L549.86-8.54Q552.16-9.28 553.41-10.57L553.41-10.57L553.41-10.57Q554.66-11.86 555.09-13.69L555.09-13.69L555.09-13.69Q555.52-15.52 555.52-17.63L555.52-17.63L555.52-38.30L555.52-38.30Q555.52-40.40 555.05-42.28L555.05-42.28L555.05-42.28Q554.58-44.15 553.33-45.47L553.33-45.47L553.33-45.47Q552.08-46.80 549.78-47.58L549.78-47.58L549.78-47.58Q547.48-48.36 543.82-48.36ZM534.14-14.74L534.14-41.26L543.43-41.26L543.43-41.26Q545.30-41.26 546.20-40.37L546.20-40.37L546.20-40.37Q547.09-39.47 547.09-37.52L547.09-37.52L547.09-18.56L547.09-18.56Q547.09-16.61 546.20-15.68L546.20-15.68L546.20-15.68Q545.30-14.74 543.43-14.74L543.43-14.74L534.14-14.74ZM536.25-15.52L536.25-29.02L536.25-29.02Q536.25-30.03 535.94-30.73L535.94-30.73L535.94-30.73Q535.63-31.43 534.92-31.75L534.92-31.75L534.92-15.52L536.25-15.52ZM596.08 10.45L596.08 10.45L596.08 10.45Q588.51 10.45 583.64 8.85L583.64 8.85L583.64 8.85Q578.76 7.25 576.03 4.60L576.03 4.60L576.03 4.60Q573.30 1.95 572.25-1.48L572.25-1.48L572.25-1.48Q571.19-4.91 571.19-8.58L571.19-8.58L571.19-44.85L571.19-44.85Q571.19-45.86 571.47-46.57L571.47-46.57L571.47-46.57Q571.74-47.27 572.29-47.74L572.29-47.74L582.35-56.24L582.35-56.24Q582.74-56.55 583.40-56.74L583.40-56.74L583.40-56.74Q584.06-56.94 584.84-56.94L584.84-56.94L597.09-56.94L597.09-56.94Q598.96-56.94 599.82-56.08L599.82-56.08L599.82-56.08Q600.68-55.22 600.68-53.35L600.68-53.35L600.68-17.78L600.68-17.78Q600.68-17.08 600.91-16.50L600.91-16.50L600.91-16.50Q601.15-15.91 601.93-15.60L601.93-15.60L601.93-44.85L601.93-44.85Q601.93-45.86 602.16-46.57L602.16-46.57L602.16-46.57Q602.39-47.27 602.86-47.66L602.86-47.66L602.94-47.74L613.08-56.24L613.08-56.24Q613.47-56.55 614.09-56.74L614.09-56.74L614.09-56.74Q614.72-56.94 615.58-56.94L615.58-56.94L627.43-56.94L627.43-56.94Q629.30-56.94 630.16-56.08L630.16-56.08L630.16-56.08Q631.02-55.22 631.02-53.35L631.02-53.35L631.02-14.74L631.02-14.74Q631.02-11.15 630.01-8.11L630.01-8.11L630.01-8.11Q628.99-5.07 626.34-2.89L626.34-2.89L616.20 5.54L616.20 5.54Q613.47 7.88 608.63 9.16L608.63 9.16L608.63 9.16Q603.80 10.45 596.08 10.45ZM630.24-14.74L630.24-14.74L630.24-53.35L630.24-53.35Q630.24-54.83 629.58-55.50L629.58-55.50L629.58-55.50Q628.91-56.16 627.43-56.16L627.43-56.16L615.58-56.16L615.58-56.16Q614.09-56.16 613.43-55.50L613.43-55.50L613.43-55.50Q612.77-54.83 612.77-53.35L612.77-53.35L612.77-17.78L612.77-17.78Q612.77-16.22 611.60-15.17L611.60-15.17L611.60-15.17Q610.43-14.12 606.29-14.12L606.29-14.12L606.29-14.12Q602.24-14.12 601.07-15.17L601.07-15.17L601.07-15.17Q599.90-16.22 599.90-17.78L599.90-17.78L599.90-53.35L599.90-53.35Q599.90-54.83 599.24-55.50L599.24-55.50L599.24-55.50Q598.57-56.16 597.09-56.16L597.09-56.16L584.84-56.16L584.84-56.16Q583.36-56.16 582.70-55.50L582.70-55.50L582.70-55.50Q582.04-54.83 582.04-53.35L582.04-53.35L582.04-14.74L582.04-14.74Q582.04-11.15 583.09-8.23L583.09-8.23L583.09-8.23Q584.14-5.30 586.83-3.24L586.83-3.24L586.83-3.24Q589.52-1.17 594.20 0L594.20 0L594.20 0Q598.88 1.17 606.14 1.17L606.14 1.17L606.14 1.17Q613.39 1.17 618.07 0L618.07 0L618.07 0Q622.75-1.17 625.44-3.24L625.44-3.24L625.44-3.24Q628.13-5.30 629.19-8.23L629.19-8.23L629.19-8.23Q630.24-11.15 630.24-14.74ZM590.62-16.61L590.62-49.14L591.40-49.14L591.40-16.61L591.40-16.61Q591.40-12.25 594.48-9.55L594.48-9.55L594.48-9.55Q597.56-6.86 606.22-6.86L606.22-6.86L606.22-6.86Q614.87-6.86 617.99-9.55L617.99-9.55L617.99-9.55Q621.11-12.25 621.11-16.61L621.11-16.61L621.11-49.14L621.89-49.14L621.89-16.61L621.89-16.61Q621.89-11.93 618.62-9.01L618.62-9.01L618.62-9.01Q615.34-6.08 606.22-6.08L606.22-6.08L606.22-6.08Q597.09-6.08 593.85-9.01L593.85-9.01L593.85-9.01Q590.62-11.93 590.62-16.61L590.62-16.61ZM692.09-2.89L682.03 5.54L682.03 5.54Q679.30 7.88 674.39 9.16L674.39 9.16L674.39 9.16Q669.47 10.45 661.75 10.45L661.75 10.45L661.75 10.45Q654.11 10.45 649.23 8.85L649.23 8.85L649.23 8.85Q644.36 7.25 641.59 4.60L641.59 4.60L641.59 4.60Q638.82 1.95 637.77-1.48L637.77-1.48L637.77-1.48Q636.71-4.91 636.71-8.58L636.71-8.58L636.71-32.84L636.71-32.84Q636.71-36.43 637.73-39.51L637.73-39.51L637.73-39.51Q638.74-42.59 641.39-44.77L641.39-44.77L651.53-53.20L651.53-53.20Q654.26-55.54 659.14-56.82L659.14-56.82L659.14-56.82Q664.01-58.11 671.81-58.11L671.81-58.11L671.81-58.11Q679.46-58.11 684.33-56.86L684.33-56.86L684.33-56.86Q689.21-55.61 691.98-53.39L691.98-53.39L691.98-53.39Q694.75-51.17 695.76-48.09L695.76-48.09L695.76-48.09Q696.77-45.01 696.77-41.34L696.77-41.34L696.77-14.74L696.77-14.74Q696.77-11.15 695.76-8.11L695.76-8.11L695.76-8.11Q694.75-5.07 692.09-2.89L692.09-2.89ZM695.99-14.74L695.99-14.74L695.99-41.34L695.99-41.34Q695.99-44.93 694.94-47.85L694.94-47.85L694.94-47.85Q693.89-50.78 691.20-52.88L691.20-52.88L691.20-52.88Q688.51-54.99 683.79-56.16L683.79-56.16L683.79-56.16Q679.07-57.33 671.81-57.33L671.81-57.33L671.81-57.33Q664.56-57.33 659.80-56.16L659.80-56.16L659.80-56.16Q655.04-54.99 652.35-52.88L652.35-52.88L652.35-52.88Q649.66-50.78 648.61-47.85L648.61-47.85L648.61-47.85Q647.56-44.93 647.56-41.34L647.56-41.34L647.56-14.74L647.56-14.74Q647.56-11.15 648.61-8.23L648.61-8.23L648.61-8.23Q649.66-5.30 652.35-3.24L652.35-3.24L652.35-3.24Q655.04-1.17 659.80 0L659.80 0L659.80 0Q664.56 1.17 671.81 1.17L671.81 1.17L671.81 1.17Q679.07 1.17 683.79 0L683.79 0L683.79 0Q688.51-1.17 691.20-3.24L691.20-3.24L691.20-3.24Q693.89-5.30 694.94-8.23L694.94-8.23L694.94-8.23Q695.99-11.15 695.99-14.74ZM687.49-39.55L687.49-16.54L687.49-16.54Q687.49-11.86 684.14-8.93L684.14-8.93L684.14-8.93Q680.78-6.01 671.66-6.01L671.66-6.01L671.66-6.01Q662.53-6.01 659.26-8.93L659.26-8.93L659.26-8.93Q655.98-11.86 655.98-16.54L655.98-16.54L655.98-39.55L655.98-39.55Q655.98-44.23 659.26-47.15L659.26-47.15L659.26-47.15Q662.53-50.08 671.66-50.08L671.66-50.08L671.66-50.08Q680.78-50.08 684.14-47.15L684.14-47.15L684.14-47.15Q687.49-44.23 687.49-39.55L687.49-39.55ZM656.76-39.55L656.76-16.54L656.76-16.54Q656.76-12.17 659.88-9.48L659.88-9.48L659.88-9.48Q663.00-6.79 671.66-6.79L671.66-6.79L671.66-6.79Q680.32-6.79 683.51-9.48L683.51-9.48L683.51-9.48Q686.71-12.17 686.71-16.54L686.71-16.54L686.71-39.55L686.71-39.55Q686.71-43.91 683.51-46.60L683.51-46.60L683.51-46.60Q680.32-49.30 671.66-49.30L671.66-49.30L671.66-49.30Q663.00-49.30 659.88-46.60L659.88-46.60L659.88-46.60Q656.76-43.91 656.76-39.55L656.76-39.55ZM665.26-17.55L665.26-17.55L665.26-38.53L665.26-38.53Q665.26-40.01 666.43-41.07L666.43-41.07L666.43-41.07Q667.60-42.12 671.81-42.12L671.81-42.12L671.81-42.12Q676.03-42.12 677.20-41.07L677.20-41.07L677.20-41.07Q678.37-40.01 678.37-38.53L678.37-38.53L678.37-17.55L678.37-17.55Q678.37-15.99 677.20-14.94L677.20-14.94L677.20-14.94Q676.03-13.88 671.81-13.88L671.81-13.88L671.81-13.88Q667.60-13.88 666.43-14.94L666.43-14.94L666.43-14.94Q665.26-15.99 665.26-17.55ZM666.04-32.29L666.04-17.55L666.04-17.55Q666.04-16.77 666.35-16.18L666.35-16.18L666.35-16.18Q666.67-15.60 667.52-15.21L667.52-15.21L667.52-30.03L667.52-30.03Q667.52-30.81 667.21-31.39L667.21-31.39L667.21-31.39Q666.90-31.98 666.04-32.29L666.04-32.29ZM724.00-48.52L724.00-48.52L752.70-16.22L752.70-49.14L753.48-49.14L753.48-7.02L752.70-7.02L752.70-15.05L723.22-48.13L723.22-48.13Q723.14-48.20 723.02-48.28L723.02-48.28L723.02-48.28Q722.90-48.36 722.83-48.36L722.83-48.36L722.83-48.36Q722.75-48.36 722.71-48.28L722.71-48.28L722.71-48.28Q722.67-48.20 722.67-48.13L722.67-48.13L722.67-7.02L721.89-7.02L721.89-48.28L721.89-48.28Q721.89-48.75 722.20-48.98L722.20-48.98L722.20-48.98Q722.51-49.22 722.83-49.22L722.83-49.22L722.83-49.22Q723.14-49.22 723.37-49.06L723.37-49.06L723.37-49.06Q723.61-48.91 724.00-48.52ZM716.51 0L728.21 0L728.21 0Q729.69 0 730.35-0.66L730.35-0.66L730.35-0.66Q731.02-1.33 731.02-2.81L731.02-2.81L731.02-28.55L744.35-12.40L744.35-2.81L744.35-2.81Q744.35-1.33 745.02-0.66L745.02-0.66L745.02-0.66Q745.68 0 747.16 0L747.16 0L758.86 0L758.86 0Q760.34 0 761.01-0.66L761.01-0.66L761.01-0.66Q761.67-1.33 761.67-2.81L761.67-2.81L761.67-53.35L761.67-53.35Q761.67-54.83 761.01-55.50L761.01-55.50L761.01-55.50Q760.34-56.16 758.86-56.16L758.86-56.16L747.16-56.16L747.16-56.16Q745.68-56.16 745.02-55.50L745.02-55.50L745.02-55.50Q744.35-54.83 744.35-53.35L744.35-53.35L744.35-36.74L729.22-54.05L729.22-54.05Q728.21-55.22 727.16-55.69L727.16-55.69L727.16-55.69Q726.10-56.16 724.62-56.16L724.62-56.16L716.51-56.16L716.51-56.16Q715.03-56.16 714.36-55.50L714.36-55.50L714.36-55.50Q713.70-54.83 713.70-53.35L713.70-53.35L713.70-2.81L713.70-2.81Q713.70-1.33 714.36-0.66L714.36-0.66L714.36-0.66Q715.03 0 716.51 0L716.51 0ZM730.70 0.08L730.70 0.08L720.56 8.50L720.56 8.50Q720.25 8.81 719.59 9.05L719.59 9.05L719.59 9.05Q718.93 9.28 718.15 9.28L718.15 9.28L706.45 9.28L706.45 9.28Q704.57 9.28 703.72 8.42L703.72 8.42L703.72 8.42Q702.86 7.57 702.86 5.69L702.86 5.69L702.86-44.85L702.86-44.85Q702.86-45.86 703.13-46.57L703.13-46.57L703.13-46.57Q703.40-47.27 703.95-47.74L703.95-47.74L714.01-56.24L714.01-56.24Q714.40-56.55 715.07-56.74L715.07-56.74L715.07-56.74Q715.73-56.94 716.51-56.94L716.51-56.94L724.62-56.94L724.62-56.94Q726.34-56.94 727.51-56.39L727.51-56.39L727.51-56.39Q728.68-55.85 729.85-54.60L729.85-54.60L735.23-48.36L744.67-56.24L744.67-56.24Q745.06-56.55 745.72-56.74L745.72-56.74L745.72-56.74Q746.38-56.94 747.16-56.94L747.16-56.94L758.86-56.94L758.86-56.94Q760.73-56.94 761.59-56.08L761.59-56.08L761.59-56.08Q762.45-55.22 762.45-53.35L762.45-53.35L762.45-2.81L762.45-2.81Q762.45-1.79 762.18-1.09L762.18-1.09L762.18-1.09Q761.90-0.39 761.36 0.08L761.36 0.08L751.22 8.50L751.22 8.50Q750.91 8.81 750.24 9.05L750.24 9.05L750.24 9.05Q749.58 9.28 748.80 9.28L748.80 9.28L737.10 9.28L737.10 9.28Q735.23 9.28 734.37 8.42L734.37 8.42L734.37 8.42Q733.51 7.57 733.51 5.69L733.51 5.69L733.51-3.59L731.80-5.69L731.80-2.81L731.80-2.81Q731.80-1.79 731.52-1.09L731.52-1.09L731.52-1.09Q731.25-0.39 730.70 0.08ZM813.07 9.28L813.07 9.28L788.50 9.28L788.50 9.28Q778.28 9.28 773.41 3.98L773.41 3.98L773.41 3.98Q768.53-1.33 768.53-9.75L768.53-9.75L768.53-31.75L768.53-31.75Q768.53-36.04 769.78-39.16L769.78-39.16L769.78-39.16Q771.03-42.28 773.45-44.38L773.45-44.38L783.51-52.88L783.51-52.88Q785.93-54.91 789.71-55.93L789.71-55.93L789.71-55.93Q793.49-56.94 798.56-56.94L798.56-56.94L818.06-56.94L818.06-56.94Q819.94-56.94 820.79-56.08L820.79-56.08L820.79-56.08Q821.65-55.22 821.65-53.35L821.65-53.35L821.65-43.91L821.65-43.91Q821.65-42.90 821.38-42.20L821.38-42.20L821.38-42.20Q821.11-41.50 820.56-41.03L820.56-41.03L810.42-32.60L810.42-32.60Q810.11-32.29 809.45-32.06L809.45-32.06L809.45-32.06Q808.78-31.82 808.00-31.82L808.00-31.82L797.86-31.82L797.86-20.59L797.86-20.59Q797.94-20.75 798.14-20.94L798.14-20.94L798.14-20.94Q798.33-21.14 798.49-21.29L798.49-21.29L808.55-29.80L808.55-29.80Q808.94-30.11 809.60-30.30L809.60-30.30L809.60-30.30Q810.26-30.50 811.04-30.50L811.04-30.50L823.13-30.50L823.13-30.50Q825.01-30.50 825.86-29.64L825.86-29.64L825.86-29.64Q826.72-28.78 826.72-26.91L826.72-26.91L826.72-2.81L826.72-2.81Q826.72-1.79 826.45-1.09L826.45-1.09L826.45-1.09Q826.18-0.39 825.63 0.08L825.63 0.08L815.49 8.50L815.49 8.50Q815.18 8.81 814.52 9.05L814.52 9.05L814.52 9.05Q813.85 9.28 813.07 9.28ZM798.56 0L823.13 0L823.13 0Q824.62 0 825.28-0.66L825.28-0.66L825.28-0.66Q825.94-1.33 825.94-2.81L825.94-2.81L825.94-26.91L825.94-26.91Q825.94-28.39 825.28-29.05L825.28-29.05L825.28-29.05Q824.62-29.72 823.13-29.72L823.13-29.72L811.04-29.72L811.04-29.72Q809.56-29.72 808.90-29.05L808.90-29.05L808.90-29.05Q808.24-28.39 808.24-26.91L808.24-26.91L808.24-14.74L800.67-14.74L800.67-14.74Q798.88-14.74 797.98-15.68L797.98-15.68L797.98-15.68Q797.08-16.61 797.08-18.56L797.08-18.56L797.08-37.21L797.08-37.21Q797.08-39.16 798.25-40.13L798.25-40.13L798.25-40.13Q799.42-41.11 801.84-41.11L801.84-41.11L818.06-41.11L818.06-41.11Q819.55-41.11 820.21-41.77L820.21-41.77L820.21-41.77Q820.87-42.43 820.87-43.91L820.87-43.91L820.87-53.35L820.87-53.35Q820.87-54.83 820.21-55.50L820.21-55.50L820.21-55.50Q819.55-56.16 818.06-56.16L818.06-56.16L798.56-56.16L798.56-56.16Q788.81-56.16 784.10-52.26L784.10-52.26L784.10-52.26Q779.38-48.36 779.38-40.25L779.38-40.25L779.38-15.91L779.38-15.91Q779.38-7.80 784.10-3.90L784.10-3.90L784.10-3.90Q788.81 0 798.56 0L798.56 0ZM817.44-7.02L801.92-7.02L801.92-7.02Q797.63-7.02 794.90-7.57L794.90-7.57L794.90-7.57Q792.17-8.11 790.61-9.32L790.61-9.32L790.61-9.32Q789.05-10.53 788.46-12.44L788.46-12.44L788.46-12.44Q787.88-14.35 787.88-17.08L787.88-17.08L787.88-38.92L787.88-38.92Q787.88-44.46 790.37-46.80L790.37-46.80L790.37-46.80Q792.87-49.14 800.36-49.14L800.36-49.14L813.85-49.14L813.85-48.36L800.36-48.36L800.36-48.36Q793.49-48.36 791.08-46.22L791.08-46.22L791.08-46.22Q788.66-44.07 788.66-38.92L788.66-38.92L788.66-17.08L788.66-17.08Q788.66-12.01 791.35-9.91L791.35-9.91L791.35-9.91Q794.04-7.80 801.92-7.80L801.92-7.80L816.66-7.80L816.66-22.70L817.44-22.70L817.44-7.02Z" fill="#ffc900"></path></g></g><style>text {
  font-size: 64px;
  font-family: Arial Black;
  dominant-baseline: central;
  text-anchor: middle;
}</style></svg>